<svg width="2905" height="2900" viewBox="0 0 2905 2900" fill="none" xmlns="http://www.w3.org/2000/svg">
<g clip-path="url(#clip0_974_32)">
1E1E1E"/>#1E1E1E"/>
<rect x="400" y="399" width="300" height="700" fill="white"/>
<rect x="400" y="1499" width="300" height="700" fill="white"/>
<path d="M700 2499.5H400V2299H700V2499.5Z" fill="white"/>
<path d="M2500 2299H2200V2499H2500V2299Z" fill="white"/>
<path d="M1200 2499H900V2299H1200V2499Z" fill="white"/>
<rect x="900" y="399" width="300" height="700" fill="white"/>
<rect x="900" y="1499" width="300" height="700" fill="white"/>
<rect x="700" y="399" width="200" height="200" fill="white"/>
<rect x="700" y="1499" width="200" height="200" fill="white"/>
<rect x="700" y="1999" width="200" height="200" fill="white"/>
<rect x="700" y="699" width="200" height="100" fill="white"/>
<path d="M2200 399H2400H2500V499V1099H2200V399Z" fill="white"/>
<path d="M2200 1499H2500V2199H2200V1499Z" fill="white"/>
<path d="M1600 399H1900V1099H1600V399Z" fill="white"/>
<path d="M1600 1499H1900V2199H1600V1499Z" fill="white"/>
<path d="M1900 574L2200 749V924L1900 749V574Z" fill="white"/>
<path d="M1900 1674L2200 1849V2024L1900 1849V1674Z" fill="white"/>
<path d="M1500 2600.5L1400 2900L1300 2600.5L1300 299.5L1400 -8.74229e-06L1500 299.5L1500 2600.5Z" fill="white"/>
<path d="M298.5 1400L-4.37114e-06 1300L300 1200L2600 1200L2900 1300L2600 1400L298.5 1400Z" fill="white"/>
<path d="M1600 2499H1900V2299H1600V2499Z" fill="white"/>
</g>
<defs>
<clipPath id="clip0_974_32">
1E1E1E"/>white"/>
</clipPath>
</defs>
</svg>
